<mxfile host="app.diagrams.net" modified="2024-03-04T09:31:53.456Z" agent="Mozilla/5.0 (Windows NT 10.0; Win64; x64) AppleWebKit/537.36 (KHTML, like Gecko) Chrome/121.0.0.0 Safari/537.36 OPR/107.0.0.0" etag="zSP4UVjJbAMJx32hQCJd" version="24.0.1" type="device">
  <diagram name="Page-1" id="hLnUzKsIZfY_c8V2M1LN">
    <mxGraphModel dx="2092" dy="784" grid="1" gridSize="10" guides="1" tooltips="1" connect="1" arrows="1" fold="1" page="1" pageScale="1" pageWidth="850" pageHeight="1100" math="0" shadow="0">
      <root>
        <mxCell id="0" />
        <mxCell id="1" parent="0" />
        <mxCell id="ii88qQg9MS992jkgcJib-1" value="start" style="ellipse;whiteSpace=wrap;html=1;" parent="1" vertex="1">
          <mxGeometry x="380" y="30" width="120" height="80" as="geometry" />
        </mxCell>
        <mxCell id="ROJ5gaN2hFvR-x2g7_lS-4" style="edgeStyle=orthogonalEdgeStyle;rounded=0;orthogonalLoop=1;jettySize=auto;html=1;entryX=0.5;entryY=0;entryDx=0;entryDy=0;" parent="1" source="ii88qQg9MS992jkgcJib-2" target="ii88qQg9MS992jkgcJib-5" edge="1">
          <mxGeometry relative="1" as="geometry" />
        </mxCell>
        <mxCell id="ii88qQg9MS992jkgcJib-2" value="" style="verticalLabelPosition=bottom;verticalAlign=top;html=1;shape=card;whiteSpace=wrap;size=20;arcSize=12;" parent="1" vertex="1">
          <mxGeometry x="390" y="150" width="100" height="60" as="geometry" />
        </mxCell>
        <mxCell id="ROJ5gaN2hFvR-x2g7_lS-6" style="edgeStyle=orthogonalEdgeStyle;rounded=0;orthogonalLoop=1;jettySize=auto;html=1;entryX=0.5;entryY=0;entryDx=0;entryDy=0;" parent="1" source="ii88qQg9MS992jkgcJib-3" target="ii88qQg9MS992jkgcJib-4" edge="1">
          <mxGeometry relative="1" as="geometry" />
        </mxCell>
        <mxCell id="ii88qQg9MS992jkgcJib-3" value="&quot;your movie duration is:&quot;&lt;div&gt;&lt;br&gt;&lt;/div&gt;&lt;div&gt;+hours:minutes&lt;/div&gt;" style="strokeWidth=2;html=1;shape=mxgraph.flowchart.document2;whiteSpace=wrap;size=0.25;" parent="1" vertex="1">
          <mxGeometry x="350" y="390" width="180" height="100" as="geometry" />
        </mxCell>
        <mxCell id="ii88qQg9MS992jkgcJib-4" value="stop" style="ellipse;whiteSpace=wrap;html=1;" parent="1" vertex="1">
          <mxGeometry x="380" y="520" width="120" height="80" as="geometry" />
        </mxCell>
        <mxCell id="ROJ5gaN2hFvR-x2g7_lS-5" style="edgeStyle=orthogonalEdgeStyle;rounded=0;orthogonalLoop=1;jettySize=auto;html=1;" parent="1" source="ii88qQg9MS992jkgcJib-5" target="ii88qQg9MS992jkgcJib-3" edge="1">
          <mxGeometry relative="1" as="geometry" />
        </mxCell>
        <mxCell id="ii88qQg9MS992jkgcJib-5" value="" style="rounded=1;whiteSpace=wrap;html=1;" parent="1" vertex="1">
          <mxGeometry x="345" y="260" width="190" height="90" as="geometry" />
        </mxCell>
        <mxCell id="ROJ5gaN2hFvR-x2g7_lS-1" value="total" style="text;html=1;align=center;verticalAlign=middle;whiteSpace=wrap;rounded=0;" parent="1" vertex="1">
          <mxGeometry x="410" y="165" width="60" height="30" as="geometry" />
        </mxCell>
        <mxCell id="ROJ5gaN2hFvR-x2g7_lS-2" value="hours=int(total/60)&lt;div&gt;&lt;span style=&quot;background-color: initial;&quot;&gt;minutes=total%60&lt;/span&gt;&lt;/div&gt;" style="text;html=1;align=center;verticalAlign=middle;whiteSpace=wrap;rounded=0;" parent="1" vertex="1">
          <mxGeometry x="350" y="272.5" width="180" height="65" as="geometry" />
        </mxCell>
        <mxCell id="ROJ5gaN2hFvR-x2g7_lS-3" style="edgeStyle=orthogonalEdgeStyle;rounded=0;orthogonalLoop=1;jettySize=auto;html=1;entryX=0.5;entryY=0;entryDx=0;entryDy=0;entryPerimeter=0;" parent="1" source="ii88qQg9MS992jkgcJib-1" target="ii88qQg9MS992jkgcJib-2" edge="1">
          <mxGeometry relative="1" as="geometry" />
        </mxCell>
        <mxCell id="ROJ5gaN2hFvR-x2g7_lS-8" value="start" style="ellipse;whiteSpace=wrap;html=1;" parent="1" vertex="1">
          <mxGeometry x="385" y="650" width="120" height="80" as="geometry" />
        </mxCell>
        <mxCell id="ROJ5gaN2hFvR-x2g7_lS-9" style="edgeStyle=orthogonalEdgeStyle;rounded=0;orthogonalLoop=1;jettySize=auto;html=1;entryX=0.5;entryY=0;entryDx=0;entryDy=0;" parent="1" source="ROJ5gaN2hFvR-x2g7_lS-10" target="ROJ5gaN2hFvR-x2g7_lS-15" edge="1">
          <mxGeometry relative="1" as="geometry" />
        </mxCell>
        <mxCell id="ROJ5gaN2hFvR-x2g7_lS-10" value="" style="verticalLabelPosition=bottom;verticalAlign=top;html=1;shape=card;whiteSpace=wrap;size=20;arcSize=12;" parent="1" vertex="1">
          <mxGeometry x="395" y="770" width="100" height="60" as="geometry" />
        </mxCell>
        <mxCell id="ROJ5gaN2hFvR-x2g7_lS-11" style="edgeStyle=orthogonalEdgeStyle;rounded=0;orthogonalLoop=1;jettySize=auto;html=1;entryX=0.5;entryY=0;entryDx=0;entryDy=0;" parent="1" source="ROJ5gaN2hFvR-x2g7_lS-12" target="ROJ5gaN2hFvR-x2g7_lS-13" edge="1">
          <mxGeometry relative="1" as="geometry" />
        </mxCell>
        <mxCell id="ROJ5gaN2hFvR-x2g7_lS-12" value="ahadot&amp;nbsp;" style="strokeWidth=2;html=1;shape=mxgraph.flowchart.document2;whiteSpace=wrap;size=0.25;" parent="1" vertex="1">
          <mxGeometry x="355" y="1010" width="180" height="100" as="geometry" />
        </mxCell>
        <mxCell id="ROJ5gaN2hFvR-x2g7_lS-13" value="stop" style="ellipse;whiteSpace=wrap;html=1;" parent="1" vertex="1">
          <mxGeometry x="385" y="1140" width="120" height="80" as="geometry" />
        </mxCell>
        <mxCell id="ROJ5gaN2hFvR-x2g7_lS-14" style="edgeStyle=orthogonalEdgeStyle;rounded=0;orthogonalLoop=1;jettySize=auto;html=1;" parent="1" source="ROJ5gaN2hFvR-x2g7_lS-15" target="ROJ5gaN2hFvR-x2g7_lS-12" edge="1">
          <mxGeometry relative="1" as="geometry" />
        </mxCell>
        <mxCell id="ROJ5gaN2hFvR-x2g7_lS-15" value="" style="rounded=1;whiteSpace=wrap;html=1;" parent="1" vertex="1">
          <mxGeometry x="350" y="880" width="190" height="90" as="geometry" />
        </mxCell>
        <mxCell id="ROJ5gaN2hFvR-x2g7_lS-16" value="number" style="text;html=1;align=center;verticalAlign=middle;whiteSpace=wrap;rounded=0;" parent="1" vertex="1">
          <mxGeometry x="415" y="785" width="60" height="30" as="geometry" />
        </mxCell>
        <mxCell id="ROJ5gaN2hFvR-x2g7_lS-17" value="ahadot =number%10" style="text;html=1;align=center;verticalAlign=middle;whiteSpace=wrap;rounded=0;" parent="1" vertex="1">
          <mxGeometry x="355" y="892.5" width="180" height="65" as="geometry" />
        </mxCell>
        <mxCell id="ROJ5gaN2hFvR-x2g7_lS-18" style="edgeStyle=orthogonalEdgeStyle;rounded=0;orthogonalLoop=1;jettySize=auto;html=1;entryX=0.5;entryY=0;entryDx=0;entryDy=0;entryPerimeter=0;" parent="1" source="ROJ5gaN2hFvR-x2g7_lS-8" target="ROJ5gaN2hFvR-x2g7_lS-10" edge="1">
          <mxGeometry relative="1" as="geometry" />
        </mxCell>
        <mxCell id="ROJ5gaN2hFvR-x2g7_lS-20" value="start" style="ellipse;whiteSpace=wrap;html=1;" parent="1" vertex="1">
          <mxGeometry x="85" y="650" width="120" height="80" as="geometry" />
        </mxCell>
        <mxCell id="ROJ5gaN2hFvR-x2g7_lS-21" style="edgeStyle=orthogonalEdgeStyle;rounded=0;orthogonalLoop=1;jettySize=auto;html=1;entryX=0.5;entryY=0;entryDx=0;entryDy=0;" parent="1" source="ROJ5gaN2hFvR-x2g7_lS-22" target="ROJ5gaN2hFvR-x2g7_lS-27" edge="1">
          <mxGeometry relative="1" as="geometry" />
        </mxCell>
        <mxCell id="ROJ5gaN2hFvR-x2g7_lS-22" value="" style="verticalLabelPosition=bottom;verticalAlign=top;html=1;shape=card;whiteSpace=wrap;size=20;arcSize=12;" parent="1" vertex="1">
          <mxGeometry x="95" y="770" width="100" height="60" as="geometry" />
        </mxCell>
        <mxCell id="ROJ5gaN2hFvR-x2g7_lS-23" style="edgeStyle=orthogonalEdgeStyle;rounded=0;orthogonalLoop=1;jettySize=auto;html=1;entryX=0.5;entryY=0;entryDx=0;entryDy=0;" parent="1" source="ROJ5gaN2hFvR-x2g7_lS-24" target="ROJ5gaN2hFvR-x2g7_lS-25" edge="1">
          <mxGeometry relative="1" as="geometry" />
        </mxCell>
        <mxCell id="ROJ5gaN2hFvR-x2g7_lS-24" value="asarot" style="strokeWidth=2;html=1;shape=mxgraph.flowchart.document2;whiteSpace=wrap;size=0.25;" parent="1" vertex="1">
          <mxGeometry x="55" y="1010" width="180" height="100" as="geometry" />
        </mxCell>
        <mxCell id="ROJ5gaN2hFvR-x2g7_lS-25" value="stop" style="ellipse;whiteSpace=wrap;html=1;" parent="1" vertex="1">
          <mxGeometry x="85" y="1140" width="120" height="80" as="geometry" />
        </mxCell>
        <mxCell id="ROJ5gaN2hFvR-x2g7_lS-26" style="edgeStyle=orthogonalEdgeStyle;rounded=0;orthogonalLoop=1;jettySize=auto;html=1;" parent="1" source="ROJ5gaN2hFvR-x2g7_lS-27" target="ROJ5gaN2hFvR-x2g7_lS-24" edge="1">
          <mxGeometry relative="1" as="geometry" />
        </mxCell>
        <mxCell id="ROJ5gaN2hFvR-x2g7_lS-27" value="" style="rounded=1;whiteSpace=wrap;html=1;" parent="1" vertex="1">
          <mxGeometry x="50" y="880" width="190" height="90" as="geometry" />
        </mxCell>
        <mxCell id="ROJ5gaN2hFvR-x2g7_lS-28" value="number" style="text;html=1;align=center;verticalAlign=middle;whiteSpace=wrap;rounded=0;" parent="1" vertex="1">
          <mxGeometry x="115" y="785" width="60" height="30" as="geometry" />
        </mxCell>
        <mxCell id="ROJ5gaN2hFvR-x2g7_lS-29" value="newNum=int(number/10)&lt;div&gt;asarot = newNum % 10&lt;/div&gt;" style="text;html=1;align=center;verticalAlign=middle;whiteSpace=wrap;rounded=0;" parent="1" vertex="1">
          <mxGeometry x="55" y="892.5" width="180" height="65" as="geometry" />
        </mxCell>
        <mxCell id="ROJ5gaN2hFvR-x2g7_lS-30" style="edgeStyle=orthogonalEdgeStyle;rounded=0;orthogonalLoop=1;jettySize=auto;html=1;entryX=0.5;entryY=0;entryDx=0;entryDy=0;entryPerimeter=0;" parent="1" source="ROJ5gaN2hFvR-x2g7_lS-20" target="ROJ5gaN2hFvR-x2g7_lS-22" edge="1">
          <mxGeometry relative="1" as="geometry" />
        </mxCell>
        <mxCell id="uX1W7bH-8rj_9nfo7h0D-2" value="start" style="ellipse;whiteSpace=wrap;html=1;fillColor=#f5f5f5;fontColor=#333333;strokeColor=#666666;" parent="1" vertex="1">
          <mxGeometry x="385" y="1280" width="120" height="80" as="geometry" />
        </mxCell>
        <mxCell id="uX1W7bH-8rj_9nfo7h0D-4" value="" style="verticalLabelPosition=bottom;verticalAlign=top;html=1;shape=card;whiteSpace=wrap;size=20;arcSize=12;fillColor=#d5e8d4;strokeColor=#82b366;" parent="1" vertex="1">
          <mxGeometry x="395" y="1400" width="100" height="60" as="geometry" />
        </mxCell>
        <mxCell id="uX1W7bH-8rj_9nfo7h0D-10" value="n1,n2" style="text;html=1;align=center;verticalAlign=middle;whiteSpace=wrap;rounded=0;" parent="1" vertex="1">
          <mxGeometry x="415" y="1415" width="60" height="30" as="geometry" />
        </mxCell>
        <mxCell id="uX1W7bH-8rj_9nfo7h0D-12" style="edgeStyle=orthogonalEdgeStyle;rounded=0;orthogonalLoop=1;jettySize=auto;html=1;entryX=0.5;entryY=0;entryDx=0;entryDy=0;entryPerimeter=0;" parent="1" source="uX1W7bH-8rj_9nfo7h0D-2" target="uX1W7bH-8rj_9nfo7h0D-4" edge="1">
          <mxGeometry relative="1" as="geometry" />
        </mxCell>
        <mxCell id="uX1W7bH-8rj_9nfo7h0D-15" style="edgeStyle=orthogonalEdgeStyle;rounded=0;orthogonalLoop=1;jettySize=auto;html=1;" parent="1" source="uX1W7bH-8rj_9nfo7h0D-13" edge="1">
          <mxGeometry relative="1" as="geometry">
            <mxPoint x="220" y="1660" as="targetPoint" />
          </mxGeometry>
        </mxCell>
        <mxCell id="uX1W7bH-8rj_9nfo7h0D-16" style="edgeStyle=orthogonalEdgeStyle;rounded=0;orthogonalLoop=1;jettySize=auto;html=1;" parent="1" source="uX1W7bH-8rj_9nfo7h0D-13" edge="1">
          <mxGeometry relative="1" as="geometry">
            <mxPoint x="680" y="1660" as="targetPoint" />
          </mxGeometry>
        </mxCell>
        <mxCell id="uX1W7bH-8rj_9nfo7h0D-13" value="n1 % n2 ===0" style="strokeWidth=2;html=1;shape=mxgraph.flowchart.decision;whiteSpace=wrap;fillColor=#e1d5e7;strokeColor=#9673a6;" parent="1" vertex="1">
          <mxGeometry x="377.5" y="1510" width="135" height="140" as="geometry" />
        </mxCell>
        <mxCell id="uX1W7bH-8rj_9nfo7h0D-14" style="edgeStyle=orthogonalEdgeStyle;rounded=0;orthogonalLoop=1;jettySize=auto;html=1;entryX=0.5;entryY=0;entryDx=0;entryDy=0;entryPerimeter=0;" parent="1" source="uX1W7bH-8rj_9nfo7h0D-4" target="uX1W7bH-8rj_9nfo7h0D-13" edge="1">
          <mxGeometry relative="1" as="geometry" />
        </mxCell>
        <mxCell id="uX1W7bH-8rj_9nfo7h0D-39" style="edgeStyle=orthogonalEdgeStyle;rounded=0;orthogonalLoop=1;jettySize=auto;html=1;" parent="1" source="uX1W7bH-8rj_9nfo7h0D-19" target="uX1W7bH-8rj_9nfo7h0D-36" edge="1">
          <mxGeometry relative="1" as="geometry" />
        </mxCell>
        <mxCell id="uX1W7bH-8rj_9nfo7h0D-19" value="n2 cannot divide with n1 without sheerit" style="strokeWidth=2;html=1;shape=mxgraph.flowchart.document2;whiteSpace=wrap;size=0.25;fillColor=#f8cecc;strokeColor=#b85450;" parent="1" vertex="1">
          <mxGeometry x="600" y="1660" width="180" height="60" as="geometry" />
        </mxCell>
        <mxCell id="uX1W7bH-8rj_9nfo7h0D-40" style="edgeStyle=orthogonalEdgeStyle;rounded=0;orthogonalLoop=1;jettySize=auto;html=1;" parent="1" source="uX1W7bH-8rj_9nfo7h0D-24" edge="1">
          <mxGeometry relative="1" as="geometry">
            <mxPoint x="440" y="1770" as="targetPoint" />
          </mxGeometry>
        </mxCell>
        <mxCell id="uX1W7bH-8rj_9nfo7h0D-24" value="n2 divided with n1" style="strokeWidth=2;html=1;shape=mxgraph.flowchart.document2;whiteSpace=wrap;size=0.25;fillColor=#fff2cc;strokeColor=#d6b656;" parent="1" vertex="1">
          <mxGeometry x="120" y="1660" width="200" height="60" as="geometry" />
        </mxCell>
        <mxCell id="uX1W7bH-8rj_9nfo7h0D-34" style="edgeStyle=orthogonalEdgeStyle;rounded=0;orthogonalLoop=1;jettySize=auto;html=1;" parent="1" source="uX1W7bH-8rj_9nfo7h0D-36" edge="1">
          <mxGeometry relative="1" as="geometry">
            <mxPoint x="215" y="1920" as="targetPoint" />
          </mxGeometry>
        </mxCell>
        <mxCell id="uX1W7bH-8rj_9nfo7h0D-35" style="edgeStyle=orthogonalEdgeStyle;rounded=0;orthogonalLoop=1;jettySize=auto;html=1;" parent="1" source="uX1W7bH-8rj_9nfo7h0D-36" edge="1">
          <mxGeometry relative="1" as="geometry">
            <mxPoint x="675" y="1920" as="targetPoint" />
          </mxGeometry>
        </mxCell>
        <mxCell id="uX1W7bH-8rj_9nfo7h0D-36" value="n1 % n2 ===0" style="strokeWidth=2;html=1;shape=mxgraph.flowchart.decision;whiteSpace=wrap;fillColor=#e1d5e7;strokeColor=#9673a6;" parent="1" vertex="1">
          <mxGeometry x="372.5" y="1770" width="135" height="140" as="geometry" />
        </mxCell>
        <mxCell id="uX1W7bH-8rj_9nfo7h0D-45" style="edgeStyle=orthogonalEdgeStyle;rounded=0;orthogonalLoop=1;jettySize=auto;html=1;" parent="1" source="uX1W7bH-8rj_9nfo7h0D-37" target="uX1W7bH-8rj_9nfo7h0D-44" edge="1">
          <mxGeometry relative="1" as="geometry" />
        </mxCell>
        <mxCell id="uX1W7bH-8rj_9nfo7h0D-37" value="n1 cannot divide with n2 without sheerit" style="strokeWidth=2;html=1;shape=mxgraph.flowchart.document2;whiteSpace=wrap;size=0.25;fillColor=#f8cecc;strokeColor=#b85450;" parent="1" vertex="1">
          <mxGeometry x="595" y="1920" width="180" height="60" as="geometry" />
        </mxCell>
        <mxCell id="uX1W7bH-8rj_9nfo7h0D-46" style="edgeStyle=orthogonalEdgeStyle;rounded=0;orthogonalLoop=1;jettySize=auto;html=1;" parent="1" source="uX1W7bH-8rj_9nfo7h0D-38" target="uX1W7bH-8rj_9nfo7h0D-44" edge="1">
          <mxGeometry relative="1" as="geometry" />
        </mxCell>
        <mxCell id="uX1W7bH-8rj_9nfo7h0D-38" value="n1 divided with n2" style="strokeWidth=2;html=1;shape=mxgraph.flowchart.document2;whiteSpace=wrap;size=0.25;fillColor=#fff2cc;strokeColor=#d6b656;" parent="1" vertex="1">
          <mxGeometry x="115" y="1920" width="200" height="60" as="geometry" />
        </mxCell>
        <mxCell id="uX1W7bH-8rj_9nfo7h0D-44" value="stop" style="ellipse;whiteSpace=wrap;html=1;fillColor=#f5f5f5;fontColor=#333333;strokeColor=#666666;" parent="1" vertex="1">
          <mxGeometry x="385" y="2030" width="120" height="80" as="geometry" />
        </mxCell>
        <mxCell id="uX1W7bH-8rj_9nfo7h0D-47" value="start" style="ellipse;whiteSpace=wrap;html=1;fillColor=#f5f5f5;fontColor=#333333;strokeColor=#666666;" parent="1" vertex="1">
          <mxGeometry x="390" y="2170" width="120" height="80" as="geometry" />
        </mxCell>
        <mxCell id="uX1W7bH-8rj_9nfo7h0D-48" value="" style="verticalLabelPosition=bottom;verticalAlign=top;html=1;shape=card;whiteSpace=wrap;size=20;arcSize=12;fillColor=#d5e8d4;strokeColor=#82b366;" parent="1" vertex="1">
          <mxGeometry x="400" y="2290" width="100" height="60" as="geometry" />
        </mxCell>
        <mxCell id="uX1W7bH-8rj_9nfo7h0D-49" value="a,b" style="text;html=1;align=center;verticalAlign=middle;whiteSpace=wrap;rounded=0;" parent="1" vertex="1">
          <mxGeometry x="420" y="2305" width="60" height="30" as="geometry" />
        </mxCell>
        <mxCell id="uX1W7bH-8rj_9nfo7h0D-50" style="edgeStyle=orthogonalEdgeStyle;rounded=0;orthogonalLoop=1;jettySize=auto;html=1;entryX=0.5;entryY=0;entryDx=0;entryDy=0;entryPerimeter=0;" parent="1" source="uX1W7bH-8rj_9nfo7h0D-47" target="uX1W7bH-8rj_9nfo7h0D-48" edge="1">
          <mxGeometry relative="1" as="geometry" />
        </mxCell>
        <mxCell id="uX1W7bH-8rj_9nfo7h0D-51" style="edgeStyle=orthogonalEdgeStyle;rounded=0;orthogonalLoop=1;jettySize=auto;html=1;" parent="1" source="uX1W7bH-8rj_9nfo7h0D-53" edge="1">
          <mxGeometry relative="1" as="geometry">
            <mxPoint x="225" y="2550" as="targetPoint" />
          </mxGeometry>
        </mxCell>
        <mxCell id="uX1W7bH-8rj_9nfo7h0D-69" value="true" style="edgeLabel;html=1;align=center;verticalAlign=middle;resizable=0;points=[];" parent="uX1W7bH-8rj_9nfo7h0D-51" vertex="1" connectable="0">
          <mxGeometry x="-0.3291" relative="1" as="geometry">
            <mxPoint x="1" as="offset" />
          </mxGeometry>
        </mxCell>
        <mxCell id="uX1W7bH-8rj_9nfo7h0D-70" style="edgeStyle=orthogonalEdgeStyle;rounded=0;orthogonalLoop=1;jettySize=auto;html=1;" parent="1" source="uX1W7bH-8rj_9nfo7h0D-53" target="uX1W7bH-8rj_9nfo7h0D-56" edge="1">
          <mxGeometry relative="1" as="geometry" />
        </mxCell>
        <mxCell id="uX1W7bH-8rj_9nfo7h0D-71" value="false" style="edgeLabel;html=1;align=center;verticalAlign=middle;resizable=0;points=[];" parent="uX1W7bH-8rj_9nfo7h0D-70" vertex="1" connectable="0">
          <mxGeometry x="-0.3049" relative="1" as="geometry">
            <mxPoint x="1" as="offset" />
          </mxGeometry>
        </mxCell>
        <mxCell id="uX1W7bH-8rj_9nfo7h0D-53" value="a=&amp;gt;b" style="strokeWidth=2;html=1;shape=mxgraph.flowchart.decision;whiteSpace=wrap;fillColor=#e1d5e7;strokeColor=#9673a6;" parent="1" vertex="1">
          <mxGeometry x="382.5" y="2400" width="135" height="140" as="geometry" />
        </mxCell>
        <mxCell id="uX1W7bH-8rj_9nfo7h0D-54" style="edgeStyle=orthogonalEdgeStyle;rounded=0;orthogonalLoop=1;jettySize=auto;html=1;entryX=0.5;entryY=0;entryDx=0;entryDy=0;entryPerimeter=0;" parent="1" source="uX1W7bH-8rj_9nfo7h0D-48" target="uX1W7bH-8rj_9nfo7h0D-53" edge="1">
          <mxGeometry relative="1" as="geometry" />
        </mxCell>
        <mxCell id="uX1W7bH-8rj_9nfo7h0D-55" style="edgeStyle=orthogonalEdgeStyle;rounded=0;orthogonalLoop=1;jettySize=auto;html=1;" parent="1" source="uX1W7bH-8rj_9nfo7h0D-56" edge="1">
          <mxGeometry relative="1" as="geometry">
            <mxPoint x="445" y="2660" as="targetPoint" />
          </mxGeometry>
        </mxCell>
        <mxCell id="uX1W7bH-8rj_9nfo7h0D-56" value="b,a" style="strokeWidth=2;html=1;shape=mxgraph.flowchart.document2;whiteSpace=wrap;size=0.25;fillColor=#f8cecc;strokeColor=#b85450;" parent="1" vertex="1">
          <mxGeometry x="605" y="2550" width="180" height="60" as="geometry" />
        </mxCell>
        <mxCell id="uX1W7bH-8rj_9nfo7h0D-57" style="edgeStyle=orthogonalEdgeStyle;rounded=0;orthogonalLoop=1;jettySize=auto;html=1;" parent="1" source="uX1W7bH-8rj_9nfo7h0D-58" edge="1">
          <mxGeometry relative="1" as="geometry">
            <mxPoint x="445" y="2660" as="targetPoint" />
          </mxGeometry>
        </mxCell>
        <mxCell id="uX1W7bH-8rj_9nfo7h0D-58" value="a,b" style="strokeWidth=2;html=1;shape=mxgraph.flowchart.document2;whiteSpace=wrap;size=0.25;fillColor=#fff2cc;strokeColor=#d6b656;" parent="1" vertex="1">
          <mxGeometry x="125" y="2550" width="200" height="60" as="geometry" />
        </mxCell>
        <mxCell id="uX1W7bH-8rj_9nfo7h0D-66" value="stop" style="ellipse;whiteSpace=wrap;html=1;fillColor=#f5f5f5;fontColor=#333333;strokeColor=#666666;" parent="1" vertex="1">
          <mxGeometry x="386" y="2770" width="120" height="80" as="geometry" />
        </mxCell>
        <mxCell id="uX1W7bH-8rj_9nfo7h0D-74" style="edgeStyle=orthogonalEdgeStyle;rounded=0;orthogonalLoop=1;jettySize=auto;html=1;" parent="1" source="uX1W7bH-8rj_9nfo7h0D-72" edge="1">
          <mxGeometry relative="1" as="geometry">
            <mxPoint x="446" y="2770" as="targetPoint" />
          </mxGeometry>
        </mxCell>
        <mxCell id="uX1W7bH-8rj_9nfo7h0D-72" value="" style="ellipse;whiteSpace=wrap;html=1;aspect=fixed;" parent="1" vertex="1">
          <mxGeometry x="412" y="2660" width="68" height="68" as="geometry" />
        </mxCell>
        <mxCell id="uX1W7bH-8rj_9nfo7h0D-75" value="start" style="ellipse;whiteSpace=wrap;html=1;fillColor=#f5f5f5;fontColor=#333333;strokeColor=#666666;" parent="1" vertex="1">
          <mxGeometry x="390" y="2910" width="120" height="80" as="geometry" />
        </mxCell>
        <mxCell id="uX1W7bH-8rj_9nfo7h0D-76" value="" style="verticalLabelPosition=bottom;verticalAlign=top;html=1;shape=card;whiteSpace=wrap;size=20;arcSize=12;fillColor=#d5e8d4;strokeColor=#82b366;" parent="1" vertex="1">
          <mxGeometry x="400" y="3030" width="100" height="60" as="geometry" />
        </mxCell>
        <mxCell id="uX1W7bH-8rj_9nfo7h0D-77" value="payment" style="text;html=1;align=center;verticalAlign=middle;whiteSpace=wrap;rounded=0;" parent="1" vertex="1">
          <mxGeometry x="420" y="3045" width="60" height="30" as="geometry" />
        </mxCell>
        <mxCell id="uX1W7bH-8rj_9nfo7h0D-78" style="edgeStyle=orthogonalEdgeStyle;rounded=0;orthogonalLoop=1;jettySize=auto;html=1;entryX=0.5;entryY=0;entryDx=0;entryDy=0;entryPerimeter=0;" parent="1" source="uX1W7bH-8rj_9nfo7h0D-75" target="uX1W7bH-8rj_9nfo7h0D-76" edge="1">
          <mxGeometry relative="1" as="geometry" />
        </mxCell>
        <mxCell id="uX1W7bH-8rj_9nfo7h0D-79" style="edgeStyle=orthogonalEdgeStyle;rounded=0;orthogonalLoop=1;jettySize=auto;html=1;" parent="1" edge="1">
          <mxGeometry relative="1" as="geometry">
            <mxPoint x="240" y="3290" as="targetPoint" />
            <mxPoint x="397.5" y="3210" as="sourcePoint" />
          </mxGeometry>
        </mxCell>
        <mxCell id="uX1W7bH-8rj_9nfo7h0D-80" value="true" style="edgeLabel;html=1;align=center;verticalAlign=middle;resizable=0;points=[];" parent="uX1W7bH-8rj_9nfo7h0D-79" vertex="1" connectable="0">
          <mxGeometry x="-0.3291" relative="1" as="geometry">
            <mxPoint x="1" as="offset" />
          </mxGeometry>
        </mxCell>
        <mxCell id="uX1W7bH-8rj_9nfo7h0D-81" style="edgeStyle=orthogonalEdgeStyle;rounded=0;orthogonalLoop=1;jettySize=auto;html=1;" parent="1" source="uX1W7bH-8rj_9nfo7h0D-83" target="uX1W7bH-8rj_9nfo7h0D-86" edge="1">
          <mxGeometry relative="1" as="geometry" />
        </mxCell>
        <mxCell id="uX1W7bH-8rj_9nfo7h0D-82" value="false" style="edgeLabel;html=1;align=center;verticalAlign=middle;resizable=0;points=[];" parent="uX1W7bH-8rj_9nfo7h0D-81" vertex="1" connectable="0">
          <mxGeometry x="-0.3049" relative="1" as="geometry">
            <mxPoint x="1" as="offset" />
          </mxGeometry>
        </mxCell>
        <mxCell id="uX1W7bH-8rj_9nfo7h0D-83" value="afterRaise&amp;gt;6000" style="strokeWidth=2;html=1;shape=mxgraph.flowchart.decision;whiteSpace=wrap;fillColor=#e1d5e7;strokeColor=#9673a6;" parent="1" vertex="1">
          <mxGeometry x="382.5" y="3140" width="135" height="140" as="geometry" />
        </mxCell>
        <mxCell id="uX1W7bH-8rj_9nfo7h0D-84" style="edgeStyle=orthogonalEdgeStyle;rounded=0;orthogonalLoop=1;jettySize=auto;html=1;entryX=0.5;entryY=0;entryDx=0;entryDy=0;entryPerimeter=0;" parent="1" source="uX1W7bH-8rj_9nfo7h0D-76" target="uX1W7bH-8rj_9nfo7h0D-83" edge="1">
          <mxGeometry relative="1" as="geometry" />
        </mxCell>
        <mxCell id="uX1W7bH-8rj_9nfo7h0D-85" style="edgeStyle=orthogonalEdgeStyle;rounded=0;orthogonalLoop=1;jettySize=auto;html=1;" parent="1" source="uX1W7bH-8rj_9nfo7h0D-86" edge="1">
          <mxGeometry relative="1" as="geometry">
            <mxPoint x="445" y="3400" as="targetPoint" />
          </mxGeometry>
        </mxCell>
        <mxCell id="uX1W7bH-8rj_9nfo7h0D-86" value="raise" style="strokeWidth=2;html=1;shape=mxgraph.flowchart.document2;whiteSpace=wrap;size=0.25;fillColor=#f8cecc;strokeColor=#b85450;" parent="1" vertex="1">
          <mxGeometry x="605" y="3290" width="180" height="60" as="geometry" />
        </mxCell>
        <mxCell id="uX1W7bH-8rj_9nfo7h0D-87" style="edgeStyle=orthogonalEdgeStyle;rounded=0;orthogonalLoop=1;jettySize=auto;html=1;" parent="1" edge="1">
          <mxGeometry relative="1" as="geometry">
            <mxPoint x="445" y="3400" as="targetPoint" />
            <mxPoint x="325" y="3320" as="sourcePoint" />
          </mxGeometry>
        </mxCell>
        <mxCell id="uX1W7bH-8rj_9nfo7h0D-89" value="stop" style="ellipse;whiteSpace=wrap;html=1;fillColor=#f5f5f5;fontColor=#333333;strokeColor=#666666;" parent="1" vertex="1">
          <mxGeometry x="386" y="3510" width="120" height="80" as="geometry" />
        </mxCell>
        <mxCell id="uX1W7bH-8rj_9nfo7h0D-90" style="edgeStyle=orthogonalEdgeStyle;rounded=0;orthogonalLoop=1;jettySize=auto;html=1;" parent="1" source="uX1W7bH-8rj_9nfo7h0D-91" edge="1">
          <mxGeometry relative="1" as="geometry">
            <mxPoint x="446" y="3510" as="targetPoint" />
          </mxGeometry>
        </mxCell>
        <mxCell id="uX1W7bH-8rj_9nfo7h0D-91" value="" style="ellipse;whiteSpace=wrap;html=1;aspect=fixed;" parent="1" vertex="1">
          <mxGeometry x="412" y="3400" width="68" height="68" as="geometry" />
        </mxCell>
        <mxCell id="uX1W7bH-8rj_9nfo7h0D-92" value="raise*0.5&lt;span style=&quot;color: rgba(0, 0, 0, 0); font-family: monospace; font-size: 0px; text-align: start; text-wrap: nowrap;&quot;&gt;%3CmxGraphModel%3E%3Croot%3E%3CmxCell%20id%3D%220%22%2F%3E%3CmxCell%20id%3D%221%22%20parent%3D%220%22%2F%3E%3CmxCell%20id%3D%222%22%20value%3D%22start%22%20style%3D%22ellipse%3BwhiteSpace%3Dwrap%3Bhtml%3D1%3BfillColor%3D%23f5f5f5%3BfontColor%3D%23333333%3BstrokeColor%3D%23666666%3B%22%20vertex%3D%221%22%20parent%3D%221%22%3E%3CmxGeometry%20x%3D%22390%22%20y%3D%222170%22%20width%3D%22120%22%20height%3D%2280%22%20as%3D%22geometry%22%2F%3E%3C%2FmxCell%3E%3CmxCell%20id%3D%223%22%20value%3D%22%22%20style%3D%22verticalLabelPosition%3Dbottom%3BverticalAlign%3Dtop%3Bhtml%3D1%3Bshape%3Dcard%3BwhiteSpace%3Dwrap%3Bsize%3D20%3BarcSize%3D12%3BfillColor%3D%23d5e8d4%3BstrokeColor%3D%2382b366%3B%22%20vertex%3D%221%22%20parent%3D%221%22%3E%3CmxGeometry%20x%3D%22400%22%20y%3D%222290%22%20width%3D%22100%22%20height%3D%2260%22%20as%3D%22geometry%22%2F%3E%3C%2FmxCell%3E%3CmxCell%20id%3D%224%22%20value%3D%22a%2Cb%22%20style%3D%22text%3Bhtml%3D1%3Balign%3Dcenter%3BverticalAlign%3Dmiddle%3BwhiteSpace%3Dwrap%3Brounded%3D0%3B%22%20vertex%3D%221%22%20parent%3D%221%22%3E%3CmxGeometry%20x%3D%22420%22%20y%3D%222305%22%20width%3D%2260%22%20height%3D%2230%22%20as%3D%22geometry%22%2F%3E%3C%2FmxCell%3E%3CmxCell%20id%3D%225%22%20style%3D%22edgeStyle%3DorthogonalEdgeStyle%3Brounded%3D0%3BorthogonalLoop%3D1%3BjettySize%3Dauto%3Bhtml%3D1%3BentryX%3D0.5%3BentryY%3D0%3BentryDx%3D0%3BentryDy%3D0%3BentryPerimeter%3D0%3B%22%20edge%3D%221%22%20source%3D%222%22%20target%3D%223%22%20parent%3D%221%22%3E%3CmxGeometry%20relative%3D%221%22%20as%3D%22geometry%22%2F%3E%3C%2FmxCell%3E%3CmxCell%20id%3D%226%22%20style%3D%22edgeStyle%3DorthogonalEdgeStyle%3Brounded%3D0%3BorthogonalLoop%3D1%3BjettySize%3Dauto%3Bhtml%3D1%3B%22%20edge%3D%221%22%20source%3D%2210%22%20parent%3D%221%22%3E%3CmxGeometry%20relative%3D%221%22%20as%3D%22geometry%22%3E%3CmxPoint%20x%3D%22225%22%20y%3D%222550%22%20as%3D%22targetPoint%22%2F%3E%3C%2FmxGeometry%3E%3C%2FmxCell%3E%3CmxCell%20id%3D%227%22%20value%3D%22true%22%20style%3D%22edgeLabel%3Bhtml%3D1%3Balign%3Dcenter%3BverticalAlign%3Dmiddle%3Bresizable%3D0%3Bpoints%3D%5B%5D%3B%22%20vertex%3D%221%22%20connectable%3D%220%22%20parent%3D%226%22%3E%3CmxGeometry%20x%3D%22-0.3291%22%20relative%3D%221%22%20as%3D%22geometry%22%3E%3CmxPoint%20x%3D%221%22%20as%3D%22offset%22%2F%3E%3C%2FmxGeometry%3E%3C%2FmxCell%3E%3CmxCell%20id%3D%228%22%20style%3D%22edgeStyle%3DorthogonalEdgeStyle%3Brounded%3D0%3BorthogonalLoop%3D1%3BjettySize%3Dauto%3Bhtml%3D1%3B%22%20edge%3D%221%22%20source%3D%2210%22%20target%3D%2213%22%20parent%3D%221%22%3E%3CmxGeometry%20relative%3D%221%22%20as%3D%22geometry%22%2F%3E%3C%2FmxCell%3E%3CmxCell%20id%3D%229%22%20value%3D%22false%22%20style%3D%22edgeLabel%3Bhtml%3D1%3Balign%3Dcenter%3BverticalAlign%3Dmiddle%3Bresizable%3D0%3Bpoints%3D%5B%5D%3B%22%20vertex%3D%221%22%20connectable%3D%220%22%20parent%3D%228%22%3E%3CmxGeometry%20x%3D%22-0.3049%22%20relative%3D%221%22%20as%3D%22geometry%22%3E%3CmxPoint%20x%3D%221%22%20as%3D%22offset%22%2F%3E%3C%2FmxGeometry%3E%3C%2FmxCell%3E%3CmxCell%20id%3D%2210%22%20value%3D%22a%3D%26amp%3Bgt%3Bb%22%20style%3D%22strokeWidth%3D2%3Bhtml%3D1%3Bshape%3Dmxgraph.flowchart.decision%3BwhiteSpace%3Dwrap%3BfillColor%3D%23e1d5e7%3BstrokeColor%3D%239673a6%3B%22%20vertex%3D%221%22%20parent%3D%221%22%3E%3CmxGeometry%20x%3D%22382.5%22%20y%3D%222400%22%20width%3D%22135%22%20height%3D%22140%22%20as%3D%22geometry%22%2F%3E%3C%2FmxCell%3E%3CmxCell%20id%3D%2211%22%20style%3D%22edgeStyle%3DorthogonalEdgeStyle%3Brounded%3D0%3BorthogonalLoop%3D1%3BjettySize%3Dauto%3Bhtml%3D1%3BentryX%3D0.5%3BentryY%3D0%3BentryDx%3D0%3BentryDy%3D0%3BentryPerimeter%3D0%3B%22%20edge%3D%221%22%20source%3D%223%22%20target%3D%2210%22%20parent%3D%221%22%3E%3CmxGeometry%20relative%3D%221%22%20as%3D%22geometry%22%2F%3E%3C%2FmxCell%3E%3CmxCell%20id%3D%2212%22%20style%3D%22edgeStyle%3DorthogonalEdgeStyle%3Brounded%3D0%3BorthogonalLoop%3D1%3BjettySize%3Dauto%3Bhtml%3D1%3B%22%20edge%3D%221%22%20source%3D%2213%22%20parent%3D%221%22%3E%3CmxGeometry%20relative%3D%221%22%20as%3D%22geometry%22%3E%3CmxPoint%20x%3D%22445%22%20y%3D%222660%22%20as%3D%22targetPoint%22%2F%3E%3C%2FmxGeometry%3E%3C%2FmxCell%3E%3CmxCell%20id%3D%2213%22%20value%3D%22b%2Ca%22%20style%3D%22strokeWidth%3D2%3Bhtml%3D1%3Bshape%3Dmxgraph.flowchart.document2%3BwhiteSpace%3Dwrap%3Bsize%3D0.25%3BfillColor%3D%23f8cecc%3BstrokeColor%3D%23b85450%3B%22%20vertex%3D%221%22%20parent%3D%221%22%3E%3CmxGeometry%20x%3D%22605%22%20y%3D%222550%22%20width%3D%22180%22%20height%3D%2260%22%20as%3D%22geometry%22%2F%3E%3C%2FmxCell%3E%3CmxCell%20id%3D%2214%22%20style%3D%22edgeStyle%3DorthogonalEdgeStyle%3Brounded%3D0%3BorthogonalLoop%3D1%3BjettySize%3Dauto%3Bhtml%3D1%3B%22%20edge%3D%221%22%20source%3D%2215%22%20parent%3D%221%22%3E%3CmxGeometry%20relative%3D%221%22%20as%3D%22geometry%22%3E%3CmxPoint%20x%3D%22445%22%20y%3D%222660%22%20as%3D%22targetPoint%22%2F%3E%3C%2FmxGeometry%3E%3C%2FmxCell%3E%3CmxCell%20id%3D%2215%22%20value%3D%22a%2Cb%22%20style%3D%22strokeWidth%3D2%3Bhtml%3D1%3Bshape%3Dmxgraph.flowchart.document2%3BwhiteSpace%3Dwrap%3Bsize%3D0.25%3BfillColor%3D%23fff2cc%3BstrokeColor%3D%23d6b656%3B%22%20vertex%3D%221%22%20parent%3D%221%22%3E%3CmxGeometry%20x%3D%22125%22%20y%3D%222550%22%20width%3D%22200%22%20height%3D%2260%22%20as%3D%22geometry%22%2F%3E%3C%2FmxCell%3E%3CmxCell%20id%3D%2216%22%20value%3D%22stop%22%20style%3D%22ellipse%3BwhiteSpace%3Dwrap%3Bhtml%3D1%3BfillColor%3D%23f5f5f5%3BfontColor%3D%23333333%3BstrokeColor%3D%23666666%3B%22%20vertex%3D%221%22%20parent%3D%221%22%3E%3CmxGeometry%20x%3D%22386%22%20y%3D%222770%22%20width%3D%22120%22%20height%3D%2280%22%20as%3D%22geometry%22%2F%3E%3C%2FmxCell%3E%3CmxCell%20id%3D%2217%22%20style%3D%22edgeStyle%3DorthogonalEdgeStyle%3Brounded%3D0%3BorthogonalLoop%3D1%3BjettySize%3Dauto%3Bhtml%3D1%3B%22%20edge%3D%221%22%20source%3D%2218%22%20parent%3D%221%22%3E%3CmxGeometry%20relative%3D%221%22%20as%3D%22geometry%22%3E%3CmxPoint%20x%3D%22446%22%20y%3D%222770%22%20as%3D%22targetPoint%22%2F%3E%3C%2FmxGeometry%3E%3C%2FmxCell%3E%3CmxCell%20id%3D%2218%22%20value%3D%22%22%20style%3D%22ellipse%3BwhiteSpace%3Dwrap%3Bhtml%3D1%3Baspect%3Dfixed%3B%22%20vertex%3D%221%22%20parent%3D%221%22%3E%3CmxGeometry%20x%3D%22412%22%20y%3D%222660%22%20width%3D%2268%22%20height%3D%2268%22%20as%3D%22geometry%22%2F%3E%3C%2FmxCell%3E%3C%2Froot%3E%3C%2FmxGraphMode%&lt;/span&gt;" style="rounded=1;whiteSpace=wrap;html=1;fillColor=#fff2cc;strokeColor=#d6b656;" parent="1" vertex="1">
          <mxGeometry x="175" y="3290" width="150" height="70" as="geometry" />
        </mxCell>
        <mxCell id="uX1W7bH-8rj_9nfo7h0D-94" value="start" style="ellipse;whiteSpace=wrap;html=1;fillColor=#f5f5f5;fontColor=#333333;strokeColor=#666666;" parent="1" vertex="1">
          <mxGeometry x="390" y="3630" width="120" height="80" as="geometry" />
        </mxCell>
        <mxCell id="uX1W7bH-8rj_9nfo7h0D-95" value="" style="verticalLabelPosition=bottom;verticalAlign=top;html=1;shape=card;whiteSpace=wrap;size=20;arcSize=12;fillColor=#d5e8d4;strokeColor=#82b366;" parent="1" vertex="1">
          <mxGeometry x="400" y="3750" width="100" height="60" as="geometry" />
        </mxCell>
        <mxCell id="uX1W7bH-8rj_9nfo7h0D-96" value="num1&lt;div&gt;num2&lt;/div&gt;&lt;div&gt;num3&lt;/div&gt;" style="text;html=1;align=center;verticalAlign=middle;whiteSpace=wrap;rounded=0;" parent="1" vertex="1">
          <mxGeometry x="412" y="3757.5" width="80" height="45" as="geometry" />
        </mxCell>
        <mxCell id="uX1W7bH-8rj_9nfo7h0D-97" style="edgeStyle=orthogonalEdgeStyle;rounded=0;orthogonalLoop=1;jettySize=auto;html=1;entryX=0.5;entryY=0;entryDx=0;entryDy=0;entryPerimeter=0;" parent="1" source="uX1W7bH-8rj_9nfo7h0D-94" target="uX1W7bH-8rj_9nfo7h0D-95" edge="1">
          <mxGeometry relative="1" as="geometry" />
        </mxCell>
        <mxCell id="uX1W7bH-8rj_9nfo7h0D-98" style="edgeStyle=orthogonalEdgeStyle;rounded=0;orthogonalLoop=1;jettySize=auto;html=1;" parent="1" edge="1">
          <mxGeometry relative="1" as="geometry">
            <mxPoint x="240" y="4010" as="targetPoint" />
            <mxPoint x="397.5" y="3930" as="sourcePoint" />
          </mxGeometry>
        </mxCell>
        <mxCell id="uX1W7bH-8rj_9nfo7h0D-102" value="num1 &amp;gt; num2" style="strokeWidth=2;html=1;shape=mxgraph.flowchart.decision;whiteSpace=wrap;fillColor=#e1d5e7;strokeColor=#9673a6;" parent="1" vertex="1">
          <mxGeometry x="382.5" y="3860" width="135" height="140" as="geometry" />
        </mxCell>
        <mxCell id="uX1W7bH-8rj_9nfo7h0D-103" style="edgeStyle=orthogonalEdgeStyle;rounded=0;orthogonalLoop=1;jettySize=auto;html=1;entryX=0.5;entryY=0;entryDx=0;entryDy=0;entryPerimeter=0;" parent="1" source="uX1W7bH-8rj_9nfo7h0D-95" target="uX1W7bH-8rj_9nfo7h0D-102" edge="1">
          <mxGeometry relative="1" as="geometry" />
        </mxCell>
        <mxCell id="uX1W7bH-8rj_9nfo7h0D-118" style="edgeStyle=orthogonalEdgeStyle;rounded=0;orthogonalLoop=1;jettySize=auto;html=1;" parent="1" edge="1">
          <mxGeometry relative="1" as="geometry">
            <mxPoint x="422" y="4160" as="targetPoint" />
            <mxPoint x="287" y="4080" as="sourcePoint" />
          </mxGeometry>
        </mxCell>
        <mxCell id="uX1W7bH-8rj_9nfo7h0D-119" style="edgeStyle=orthogonalEdgeStyle;rounded=0;orthogonalLoop=1;jettySize=auto;html=1;" parent="1" source="uX1W7bH-8rj_9nfo7h0D-111" edge="1">
          <mxGeometry relative="1" as="geometry">
            <mxPoint x="30" y="4160" as="targetPoint" />
          </mxGeometry>
        </mxCell>
        <mxCell id="uX1W7bH-8rj_9nfo7h0D-111" value="num1 &amp;gt; num3" style="strokeWidth=2;html=1;shape=mxgraph.flowchart.decision;whiteSpace=wrap;fillColor=#e1d5e7;strokeColor=#9673a6;" parent="1" vertex="1">
          <mxGeometry x="170" y="4010" width="135" height="140" as="geometry" />
        </mxCell>
        <mxCell id="uX1W7bH-8rj_9nfo7h0D-120" style="edgeStyle=orthogonalEdgeStyle;rounded=0;orthogonalLoop=1;jettySize=auto;html=1;" parent="1" edge="1">
          <mxGeometry relative="1" as="geometry">
            <mxPoint x="555" y="4160" as="targetPoint" />
            <mxPoint x="632.5" y="4080" as="sourcePoint" />
          </mxGeometry>
        </mxCell>
        <mxCell id="uX1W7bH-8rj_9nfo7h0D-121" style="edgeStyle=orthogonalEdgeStyle;rounded=0;orthogonalLoop=1;jettySize=auto;html=1;" parent="1" source="uX1W7bH-8rj_9nfo7h0D-116" target="uX1W7bH-8rj_9nfo7h0D-122" edge="1">
          <mxGeometry relative="1" as="geometry">
            <mxPoint x="850" y="4160" as="targetPoint" />
          </mxGeometry>
        </mxCell>
        <mxCell id="uX1W7bH-8rj_9nfo7h0D-116" value="num2 &amp;gt; num3" style="strokeWidth=2;html=1;shape=mxgraph.flowchart.decision;whiteSpace=wrap;fillColor=#e1d5e7;strokeColor=#9673a6;" parent="1" vertex="1">
          <mxGeometry x="617.5" y="4010" width="135" height="140" as="geometry" />
        </mxCell>
        <mxCell id="uX1W7bH-8rj_9nfo7h0D-117" style="edgeStyle=orthogonalEdgeStyle;rounded=0;orthogonalLoop=1;jettySize=auto;html=1;entryX=0.5;entryY=0;entryDx=0;entryDy=0;entryPerimeter=0;" parent="1" source="uX1W7bH-8rj_9nfo7h0D-102" target="uX1W7bH-8rj_9nfo7h0D-116" edge="1">
          <mxGeometry relative="1" as="geometry" />
        </mxCell>
        <mxCell id="uX1W7bH-8rj_9nfo7h0D-126" style="edgeStyle=orthogonalEdgeStyle;rounded=0;orthogonalLoop=1;jettySize=auto;html=1;" parent="1" source="uX1W7bH-8rj_9nfo7h0D-122" edge="1">
          <mxGeometry relative="1" as="geometry">
            <mxPoint x="700" y="4260" as="targetPoint" />
          </mxGeometry>
        </mxCell>
        <mxCell id="uX1W7bH-8rj_9nfo7h0D-122" value="num3" style="strokeWidth=2;html=1;shape=mxgraph.flowchart.document2;whiteSpace=wrap;size=0.25;fillColor=#ffe6cc;strokeColor=#d79b00;" parent="1" vertex="1">
          <mxGeometry x="800" y="4160" width="100" height="60" as="geometry" />
        </mxCell>
        <mxCell id="uX1W7bH-8rj_9nfo7h0D-127" style="edgeStyle=orthogonalEdgeStyle;rounded=0;orthogonalLoop=1;jettySize=auto;html=1;" parent="1" source="uX1W7bH-8rj_9nfo7h0D-123" edge="1">
          <mxGeometry relative="1" as="geometry">
            <mxPoint x="700" y="4260" as="targetPoint" />
          </mxGeometry>
        </mxCell>
        <mxCell id="uX1W7bH-8rj_9nfo7h0D-123" value="num2" style="strokeWidth=2;html=1;shape=mxgraph.flowchart.document2;whiteSpace=wrap;size=0.25;fillColor=#ffe6cc;strokeColor=#d79b00;" parent="1" vertex="1">
          <mxGeometry x="505" y="4160" width="100" height="60" as="geometry" />
        </mxCell>
        <mxCell id="uX1W7bH-8rj_9nfo7h0D-128" style="edgeStyle=orthogonalEdgeStyle;rounded=0;orthogonalLoop=1;jettySize=auto;html=1;" parent="1" source="uX1W7bH-8rj_9nfo7h0D-124" edge="1">
          <mxGeometry relative="1" as="geometry">
            <mxPoint x="230" y="4260" as="targetPoint" />
          </mxGeometry>
        </mxCell>
        <mxCell id="uX1W7bH-8rj_9nfo7h0D-124" value="num3" style="strokeWidth=2;html=1;shape=mxgraph.flowchart.document2;whiteSpace=wrap;size=0.25;fillColor=#ffe6cc;strokeColor=#d79b00;" parent="1" vertex="1">
          <mxGeometry x="370" y="4160" width="100" height="60" as="geometry" />
        </mxCell>
        <mxCell id="uX1W7bH-8rj_9nfo7h0D-129" style="edgeStyle=orthogonalEdgeStyle;rounded=0;orthogonalLoop=1;jettySize=auto;html=1;" parent="1" source="uX1W7bH-8rj_9nfo7h0D-125" edge="1">
          <mxGeometry relative="1" as="geometry">
            <mxPoint x="230" y="4260" as="targetPoint" />
          </mxGeometry>
        </mxCell>
        <mxCell id="uX1W7bH-8rj_9nfo7h0D-125" value="num1" style="strokeWidth=2;html=1;shape=mxgraph.flowchart.document2;whiteSpace=wrap;size=0.25;fillColor=#ffe6cc;strokeColor=#d79b00;" parent="1" vertex="1">
          <mxGeometry x="-15" y="4160" width="100" height="60" as="geometry" />
        </mxCell>
        <mxCell id="uX1W7bH-8rj_9nfo7h0D-133" style="edgeStyle=orthogonalEdgeStyle;rounded=0;orthogonalLoop=1;jettySize=auto;html=1;" parent="1" source="uX1W7bH-8rj_9nfo7h0D-130" edge="1">
          <mxGeometry relative="1" as="geometry">
            <mxPoint x="480" y="4340" as="targetPoint" />
          </mxGeometry>
        </mxCell>
        <mxCell id="uX1W7bH-8rj_9nfo7h0D-130" value="" style="verticalLabelPosition=bottom;verticalAlign=top;html=1;shape=mxgraph.flowchart.on-page_reference;" parent="1" vertex="1">
          <mxGeometry x="200" y="4260" width="60" height="60" as="geometry" />
        </mxCell>
        <mxCell id="uX1W7bH-8rj_9nfo7h0D-132" style="edgeStyle=orthogonalEdgeStyle;rounded=0;orthogonalLoop=1;jettySize=auto;html=1;" parent="1" source="uX1W7bH-8rj_9nfo7h0D-131" edge="1">
          <mxGeometry relative="1" as="geometry">
            <mxPoint x="480" y="4340" as="targetPoint" />
          </mxGeometry>
        </mxCell>
        <mxCell id="uX1W7bH-8rj_9nfo7h0D-131" value="" style="verticalLabelPosition=bottom;verticalAlign=top;html=1;shape=mxgraph.flowchart.on-page_reference;" parent="1" vertex="1">
          <mxGeometry x="670" y="4260" width="60" height="60" as="geometry" />
        </mxCell>
        <mxCell id="uX1W7bH-8rj_9nfo7h0D-134" value="stop" style="ellipse;whiteSpace=wrap;html=1;fillColor=#f5f5f5;fontColor=#333333;strokeColor=#666666;" parent="1" vertex="1">
          <mxGeometry x="420" y="4340" width="120" height="80" as="geometry" />
        </mxCell>
      </root>
    </mxGraphModel>
  </diagram>
</mxfile>
